# xmcd
#
# Track frame offsets:
#	150
#	11410
#	29072
#	52222
#	75877
#	89405
#	109412
#	122527
#	134947
#	148515
#	162137
#	178820
#	191427
#	204927
#	219145
#	234272
#
# Disc length: 3279 seconds
#
# Revision: 1
# Processed by: cddbd v1.5.2PL0 Copyright (c) Steve Scherf et al.
# Submitted via: audiograbber 1.83.01
#
DISCID=da0ccd10
DTITLE=Country Blues Project - All By Myself
DYEAR=1996
DGENRE=Blues
TTITLE0=All By Myself
TTITLE1=Sleeping All By Myself
TTITLE2=The Detroit Special
TTITLE3=Blues Everywhere I Go
TTITLE4=Jackson Stomp
TTITLE5=Will I Ever Get Back Home
TTITLE6=Guitar Rag
TTITLE7=From Four 'till Late
TTITLE8=When I Take My Vacations In Harlem
TTITLE9=Ticket Agent Blues
TTITLE10=Medicine Blues
TTITLE11=Chattanooga Mama
TTITLE12=Your Bisquits Are Big Enough For Me
TTITLE13=Stop Trucking And Suzi Q
TTITLE14=Tuff Luck Blues
TTITLE15=I'll Be There A Long, Long Time
EXTD=
EXTT0=
EXTT1=
EXTT2=
EXTT3=
EXTT4=
EXTT5=
EXTT6=
EXTT7=
EXTT8=
EXTT9=
EXTT10=
EXTT11=
EXTT12=Corrected.
EXTT13=
EXTT14=
EXTT15=
PLAYORDER=
